<svg version="1.1" id="Layer_1" xmlns="http://www.w3.org/2000/svg" xmlns:xlink="http://www.w3.org/1999/xlink" x="0px" y="0px"
	 width="100%" viewBox="0 0 142 111" enable-background="new 0 0 142 111" xml:space="preserve">
<path fill="none" opacity="1.000000" stroke="none" 
	d="
M100.000000,112.000000 
	C66.699142,112.000000 33.898277,112.000000 1.048709,112.000000 
	C1.048709,75.069122 1.048709,38.138161 1.048709,1.103600 
	C48.217251,1.103600 95.434807,1.103600 142.826172,1.103600 
	C142.826172,37.999325 142.826172,74.999603 142.826172,112.000000 
	C128.805283,112.000000 114.652641,112.000000 100.000000,112.000000 
M13.797196,97.269714 
	C11.469215,101.108208 9.141234,104.946701 6.142870,109.890556 
	C20.525049,109.890556 33.448437,109.942238 46.369362,109.787674 
	C47.351444,109.775932 48.656765,108.495667 49.237064,107.477470 
	C56.616451,94.529526 63.834976,81.489929 71.210007,68.539467 
	C76.590714,59.091007 82.142334,49.739880 87.853920,39.940178 
	C93.436981,49.674953 98.693451,58.962353 104.070015,68.179710 
	C109.155930,76.898796 114.433136,85.507050 119.442230,94.269226 
	C120.070793,95.368744 120.191460,97.853210 119.498688,98.424767 
	C116.435616,100.951843 107.906616,98.345451 105.878891,94.766708 
	C100.059242,84.495590 94.123184,74.290436 87.734108,63.192997 
	C85.568069,66.721077 83.472275,69.590355 82.022285,72.755493 
	C81.413841,74.083641 81.652809,76.328712 82.396446,77.659744 
	C86.501389,85.007118 91.694450,91.856148 94.951546,99.538658 
	C98.651863,108.266586 104.109390,111.056625 113.290405,110.182877 
	C122.455292,109.310669 131.767975,109.991547 142.147263,109.991547 
	C123.798698,78.373611 106.035210,47.763859 87.981941,16.654764 
	C87.019775,17.860397 86.235786,18.627441 85.703529,19.541119 
	C71.529190,43.872871 57.383430,68.221268 43.226257,92.563019 
	C39.280304,99.347679 34.949661,100.814575 27.072725,97.758888 
	C45.044476,66.699615 62.982555,35.698544 81.291214,4.057013 
	C76.650688,4.057013 72.703369,3.914801 68.778923,4.151575 
	C67.726349,4.215081 66.366707,5.206487 65.791862,6.160055 
	C62.830872,11.071807 60.082928,16.111870 57.254162,21.103483 
	C50.303219,33.369057 43.393951,45.658539 36.383308,57.889908 
	C28.978552,70.808876 21.475817,83.671692 13.797196,97.269714 
z"/>
<path fill="#111827" opacity="1.000000" stroke="none" 
	d="
M13.906538,96.914375 
	C21.475817,83.671692 28.978552,70.808876 36.383308,57.889908 
	C43.393951,45.658539 50.303219,33.369057 57.254162,21.103483 
	C60.082928,16.111870 62.830872,11.071807 65.791862,6.160055 
	C66.366707,5.206487 67.726349,4.215081 68.778923,4.151575 
	C72.703369,3.914801 76.650688,4.057013 81.291214,4.057013 
	C62.982555,35.698544 45.044476,66.699615 27.072725,97.758888 
	C34.949661,100.814575 39.280304,99.347679 43.226257,92.563019 
	C57.383430,68.221268 71.529190,43.872871 85.703529,19.541119 
	C86.235786,18.627441 87.019775,17.860397 87.981941,16.654764 
	C106.035210,47.763859 123.798698,78.373611 142.147263,109.991547 
	C131.767975,109.991547 122.455292,109.310669 113.290405,110.182877 
	C104.109390,111.056625 98.651863,108.266586 94.951546,99.538658 
	C91.694450,91.856148 86.501389,85.007118 82.396446,77.659744 
	C81.652809,76.328712 81.413841,74.083641 82.022285,72.755493 
	C83.472275,69.590355 85.568069,66.721077 87.734108,63.192997 
	C94.123184,74.290436 100.059242,84.495590 105.878891,94.766708 
	C107.906616,98.345451 116.435616,100.951843 119.498688,98.424767 
	C120.191460,97.853210 120.070793,95.368744 119.442230,94.269226 
	C114.433136,85.507050 109.155930,76.898796 104.070015,68.179710 
	C98.693451,58.962353 93.436981,49.674953 87.853920,39.940178 
	C82.142334,49.739880 76.590714,59.091007 71.210007,68.539467 
	C63.834976,81.489929 56.616451,94.529526 49.237064,107.477470 
	C48.656765,108.495667 47.351444,109.775932 46.369362,109.787674 
	C33.448437,109.942238 20.525049,109.890556 6.142870,109.890556 
	C9.141234,104.946701 11.469215,101.108208 13.906538,96.914375 
z"/>
</svg>